<svg xmlns="http://www.w3.org/2000/svg" width="400" height="400" viewBox="0 0 400 400">
  <!-- SHADOW -->
  <ellipse cx="200" cy="358" rx="72" ry="14" fill="#000" opacity="0.08"/>
  <!-- TAIL -->
  <ellipse cx="272" cy="310" rx="18" ry="14" fill="#e8e8e8"/>
  <!-- BODY -->
  <ellipse cx="200" cy="295" rx="88" ry="82" fill="#f5f5f5"/>
  <ellipse cx="200" cy="300" rx="52" ry="52" fill="#ececec"/>
  <!-- LEFT LEG -->
  <ellipse cx="150" cy="355" rx="32" ry="20" fill="#1a1a1a" transform="rotate(-10 150 355)"/>
  <ellipse cx="136" cy="362" rx="18" ry="12" fill="#1a1a1a"/>
  <circle cx="124" cy="366" r="5" fill="#1a1a1a"/>
  <circle cx="133" cy="370" r="5" fill="#1a1a1a"/>
  <circle cx="143" cy="371" r="5" fill="#1a1a1a"/>
  <!-- RIGHT LEG -->
  <ellipse cx="250" cy="355" rx="32" ry="20" fill="#1a1a1a" transform="rotate(10 250 355)"/>
  <ellipse cx="264" cy="362" rx="18" ry="12" fill="#1a1a1a"/>
  <circle cx="258" cy="370" r="5" fill="#1a1a1a"/>
  <circle cx="268" cy="371" r="5" fill="#1a1a1a"/>
  <circle cx="277" cy="367" r="5" fill="#1a1a1a"/>
  <!-- LEFT ARM -->
  <ellipse cx="118" cy="265" rx="22" ry="34" fill="#1a1a1a" transform="rotate(-30 118 265)"/>
  <ellipse cx="102" cy="238" rx="20" ry="16" fill="#1a1a1a" transform="rotate(-20 102 238)"/>
  <ellipse cx="98" cy="232" rx="12" ry="10" fill="#d47a8a" opacity="0.7"/>
  <circle cx="91" cy="225" r="4" fill="#d47a8a" opacity="0.7"/>
  <circle cx="101" cy="221" r="4" fill="#d47a8a" opacity="0.7"/>
  <circle cx="111" cy="224" r="4" fill="#d47a8a" opacity="0.7"/>
  <!-- RIGHT ARM -->
  <ellipse cx="282" cy="268" rx="22" ry="34" fill="#1a1a1a" transform="rotate(25 282 268)"/>
  <ellipse cx="298" cy="244" rx="20" ry="16" fill="#1a1a1a" transform="rotate(15 298 244)"/>
  <ellipse cx="302" cy="238" rx="12" ry="10" fill="#d47a8a" opacity="0.7"/>
  <circle cx="295" cy="230" r="4" fill="#d47a8a" opacity="0.7"/>
  <circle cx="306" cy="229" r="4" fill="#d47a8a" opacity="0.7"/>
  <circle cx="313" cy="235" r="4" fill="#d47a8a" opacity="0.7"/>
  <!-- FLASHCARD -->
  <rect x="52" y="172" width="62" height="48" rx="7" fill="white" stroke="#E24B4A" stroke-width="3"/>
  <line x1="64" y1="185" x2="102" y2="185" stroke="#fcc" stroke-width="2.5" stroke-linecap="round"/>
  <line x1="64" y1="196" x2="96" y2="196" stroke="#fcc" stroke-width="2.5" stroke-linecap="round"/>
  <line x1="64" y1="207" x2="100" y2="207" stroke="#fcc" stroke-width="2.5" stroke-linecap="round"/>
  <!-- HEAD -->
  <ellipse cx="200" cy="195" rx="78" ry="74" fill="#f5f5f5"/>
  <!-- EARS -->
  <ellipse cx="142" cy="136" rx="26" ry="26" fill="#1a1a1a"/>
  <ellipse cx="142" cy="136" rx="15" ry="15" fill="#3a3a3a"/>
  <ellipse cx="258" cy="136" rx="26" ry="26" fill="#1a1a1a"/>
  <ellipse cx="258" cy="136" rx="15" ry="15" fill="#3a3a3a"/>
  <!-- EYE PATCHES -->
  <ellipse cx="172" cy="188" rx="24" ry="22" fill="#1a1a1a" transform="rotate(-10 172 188)"/>
  <ellipse cx="228" cy="188" rx="24" ry="22" fill="#1a1a1a" transform="rotate(10 228 188)"/>
  <!-- EYES -->
  <ellipse cx="172" cy="187" rx="14" ry="14" fill="white"/>
  <ellipse cx="228" cy="187" rx="14" ry="14" fill="white"/>
  <circle cx="175" cy="189" r="9" fill="#1a1a1a"/>
  <circle cx="225" cy="189" r="9" fill="#1a1a1a"/>
  <circle cx="179" cy="184" r="4" fill="white"/>
  <circle cx="229" cy="184" r="4" fill="white"/>
  <circle cx="170" cy="192" r="2" fill="white" opacity="0.7"/>
  <circle cx="220" cy="192" r="2" fill="white" opacity="0.7"/>
  <!-- NOSE -->
  <ellipse cx="200" cy="208" rx="10" ry="7" fill="#1a1a1a"/>
  <ellipse cx="198" cy="206" rx="4" ry="2.5" fill="#555" opacity="0.5"/>
  <!-- MOUTH -->
  <path d="M188 218 Q200 230 212 218" fill="none" stroke="#1a1a1a" stroke-width="2.5" stroke-linecap="round"/>
  <!-- CHEEKS -->
  <ellipse cx="158" cy="215" rx="16" ry="10" fill="#F4829A" opacity="0.45"/>
  <ellipse cx="242" cy="215" rx="16" ry="10" fill="#F4829A" opacity="0.45"/>
</svg>
